<svg width="100" height="100" viewBox="0 0 100 100" fill="none" xmlns="http://www.w3.org/2000/svg">
<path d="M50 100C36.7441 99.984 24.0357 94.711 14.6624 85.3376C5.28901 75.9643 0.0160386 63.2559 0 50V0H100V50C99.984 63.2559 94.711 75.9643 85.3376 85.3376C75.9643 94.711 63.2559 99.984 50 100ZM9.09091 9.09091V50C9.09091 60.8498 13.401 71.2551 21.0729 78.9271C28.7448 86.599 39.1502 90.9091 50 90.9091C60.8498 90.9091 71.2552 86.599 78.9271 78.9271C86.599 71.2551 90.9091 60.8498 90.9091 50V9.09091H9.09091Z" fill="#E0B152"/>
<path d="M72.7269 30.302H27.2724V39.3929H33.4845L30.333 64.5747H39.4845L42.636 39.3929H57.333L60.4845 64.5747H69.636L66.4844 39.3929H72.7269V30.302Z" fill="#E0B152"/>
</svg>
